# File created by Blade
# Date/Time:  Tue Apr 07 20:13:55 2015
# Frame Rate: 120.000 fps
#------------------------------------------------------
:FULLY-SPECIFIED
:DEGREES
4132
root 1.247536 32.766460 -11.677279 15.207629 2.506719 -1.731195
Spine -1.880616 -7.708911 -2.408141
Head 39.353725 -7.692191 6.338630
LeftShoulder -19.003181 50.282323 7.041187
LeftArm 52.375568 8.775703 -77.934281
LeftForeArm -10.179821 -0.000000 33.618500
LeftHand 12.519295 0.000000 8.886604
LeftHandThumb1 -26.253704 0.000000 33.147579
RightShoulder -5.408844 -11.710148 -15.237853
RightArm 12.016136 2.973081 90.764862
RightForeArm 21.672708 -0.000000 63.277802
RightHand 3.187218 0.000000 6.706302
RightHandThumb1 -24.326973 -0.000000 -32.862282
LeftUpLeg -20.621154 -2.646256 0.755246
LeftLeg 10.250646 -0.000000 -0.000000
LeftFoot -8.738592 6.941893 -16.276894
LeftToeBase -6.139535 -0.000000 0.000000
RightUpLeg -19.735901 -2.826805 5.907577
RightLeg 6.069756 -0.000000 -0.000000
RightFoot -6.926601 -10.136481 2.318894
RightToeBase 2.508268 -0.000000 -0.000000
4133
root 1.250088 32.769558 -11.653047 15.165304 2.403592 -1.670122
Spine -1.973391 -7.661478 -2.449224
Head 39.323067 -7.588980 6.155204
LeftShoulder -19.128964 50.351098 6.850379
LeftArm 52.347825 8.676130 -78.008224
LeftForeArm -9.974220 -0.000000 33.715491
LeftHand 12.850114 0.000000 9.455371
LeftHandThumb1 -26.253704 0.000000 33.147579
RightShoulder -5.416517 -11.711261 -15.264806
RightArm 12.005268 2.975787 90.750572
RightForeArm 21.481633 -0.000000 63.305474
RightHand 3.231811 0.000000 6.655010
RightHandThumb1 -24.326973 -0.000000 -32.862282
LeftUpLeg -20.389641 -2.630815 0.678623
LeftLeg 9.972803 -0.000000 -0.000000
LeftFoot -8.678671 7.042417 -16.279250
LeftToeBase -6.142213 -0.000000 0.000000
RightUpLeg -19.449699 -3.067303 5.894347
RightLeg 5.639349 -0.000000 -0.000000
RightFoot -6.781119 -9.771819 2.318573
RightToeBase 2.512597 -0.000000 -0.000000
4134
root 1.250724 32.772431 -11.628732 15.142587 2.327699 -1.617466
Spine -2.091318 -7.627211 -2.461800
Head 39.303445 -7.504121 5.914453
LeftShoulder -19.247881 50.370486 6.657568
LeftArm 52.295992 8.603463 -78.041483
LeftForeArm -9.837798 -0.000000 33.802248
LeftHand 13.214020 -0.000000 10.218302
LeftHandThumb1 -26.253704 0.000000 33.147579
RightShoulder -5.434304 -11.768213 -15.295651
RightArm 12.049927 2.985882 90.748371
RightForeArm 21.326935 -0.000000 63.335078
RightHand 3.181873 -0.000000 6.641355
RightHandThumb1 -24.326973 -0.000000 -32.862282
LeftUpLeg -20.177360 -2.637750 0.621955
LeftLeg 9.688327 -0.000000 -0.000000
LeftFoot -8.618704 7.116762 -16.282298
LeftToeBase -6.140643 -0.000000 0.000000
RightUpLeg -19.115309 -3.247163 5.874898
RightLeg 5.069060 -0.000000 -0.000000
RightFoot -6.568119 -9.491995 2.321411
RightToeBase 2.422356 -0.000000 -0.000000
4135
root 1.250495 32.776018 -11.602075 15.095812 2.279020 -1.566995
Spine -2.187280 -7.591084 -2.474852
Head 39.287329 -7.438914 5.719425
LeftShoulder -19.333961 50.360669 6.509777
LeftArm 52.223612 8.543399 -78.105003
LeftForeArm -9.568494 -0.000000 33.919527
LeftHand 13.361914 -0.000000 11.115155
LeftHandThumb1 -26.253704 0.000000 33.147579
RightShoulder -5.440863 -11.834153 -15.313501
RightArm 12.069092 2.982158 90.716998
RightForeArm 21.235882 -0.000000 63.372567
RightHand 3.126177 -0.000000 6.662839
RightHandThumb1 -24.326973 -0.000000 -32.862282
LeftUpLeg -19.935770 -2.644473 0.568412
LeftLeg 9.400840 -0.000000 -0.000000
LeftFoot -8.548350 7.173271 -16.278841
LeftToeBase -6.161684 -0.000000 0.000000
RightUpLeg -18.727543 -3.437892 5.853072
RightLeg 4.445461 -0.000000 -0.000000
RightFoot -6.316048 -9.202665 2.371723
RightToeBase 2.350564 -0.000000 -0.000000
